<svg id="Layer_1" data-name="Layer 1" xmlns="http://www.w3.org/2000/svg" xmlns:xlink="http://www.w3.org/1999/xlink" viewBox="0 0 2307.43 568.45"><defs><style>.cls-1{fill:none;}.cls-2{fill:#fff;}.cls-3{fill:#1e221f;}.cls-4{clip-path:url(#clip-path);}.cls-5{fill:url(#linear-gradient);}.cls-6{clip-path:url(#clip-path-2);}.cls-7{fill:url(#linear-gradient-2);}</style><clipPath id="clip-path" transform="translate(-71.32 -65.95)"><path class="cls-1" d="M809.68,437.13l96.08,114.52a6.61,6.61,0,0,0,5,2.6v0a6.6,6.6,0,0,0,5-2.61l96.3-114.79L916,322.32a6.6,6.6,0,0,0-5-2.6v0a6.6,6.6,0,0,0-5,2.61Zm-58.5-6.53,10.94-13,.33-.34,3.81-4.52L873.8,284.58a11.32,11.32,0,0,0,1.42-2.37l25.95-30.93,0,0,9.8-11.68v0l0,0h0l9.8,11.68,0,0,25.95,30.93a11.32,11.32,0,0,0,1.42,2.37l122.41,145.9c5.42,6.46,0,12.9,0,12.9l-10.94,13-.33.34-3.81,4.52L948,589.39a11.22,11.22,0,0,0-1.42,2.37l-26,30.93,0,0-9.8,11.68v0l0,0h0L901,622.69l0,0-26-30.93a11.22,11.22,0,0,0-1.42-2.37L751.17,443.5c-5.41-6.46,0-12.9,0-12.9"/></clipPath><linearGradient id="linear-gradient" x1="1204.66" y1="634.41" x2="1206.66" y2="634.41" gradientTransform="translate(-124063.95 237743.42) rotate(-90) scale(196.88)" gradientUnits="userSpaceOnUse"><stop offset="0" stop-color="#94becd"/><stop offset="0.14" stop-color="#86b3c2"/><stop offset="0.41" stop-color="#6294a6"/><stop offset="0.77" stop-color="#286479"/><stop offset="0.99" stop-color="#00425a"/><stop offset="1" stop-color="#00425a"/><stop offset="1" stop-color="#00425a"/></linearGradient><clipPath id="clip-path-2" transform="translate(-71.32 -65.95)"><path class="cls-1" d="M751.52,94.26l10.94-13c.1-.12.22-.23.33-.34l9.67-11.48C774,67.78,776,66,778.13,66s4.46,2.29,6.07,4.1L801.26,90.4l.36.39L906.09,215.31a6.59,6.59,0,0,0,5,2.6v0a6.6,6.6,0,0,0,5-2.61L1020.6,90.76l.36-.39L1038,70c1.62-1.81,3.81-4.1,6.07-4.1s4.15,1.82,5.66,3.49l9.67,11.48.33.34,10.94,13s5.43,6.45,0,12.9l-122.4,145.9a11.24,11.24,0,0,0-1.42,2.37l-26,30.93,0,0L911.12,298v0l0,0h0l-9.8-11.68,0,0-26-30.93a11.22,11.22,0,0,0-1.42-2.37L751.5,107.17c-5.42-6.46,0-12.9,0-12.9"/></clipPath><linearGradient id="linear-gradient-2" x1="1205.87" y1="632.32" x2="1207.88" y2="632.32" gradientTransform="translate(-72347.8 139805.88) rotate(-90) scale(115.75)" xlink:href="#linear-gradient"/></defs><title>logo</title><path class="cls-2" d="M262.76,103.27q41.31,0,41.31,15.11v28q0,6.62-9.63,10.86t-28.53,4.25H117.82V103.27ZM117.82,259.52V194.27H265.21q19.61,0,29.23,4.1t9.63,11v35q0,15.13-41.31,15.13Zm-46.5,32.75H262.74q87.83,0,87.84-47.89V212.55q0-23.31-27.27-34.66,27.27-10.71,27.27-38.41v-21.1q0-47.86-87.84-47.86H71.32Z" transform="translate(-71.32 -65.95)"/><path class="cls-2" d="M395.12,244.39q0,47.88,87.82,47.88H624.29q87.82,0,87.82-47.25V118.4q0-47.88-87.82-47.88H482.94q-87.83,0-87.82,47.88Zm87.8,15.13q-41.3,0-41.3-15.12v-126q0-15.12,41.3-15.12h141.4q41.3,0,41.3,15.12V245q0,14.5-41.3,14.49Z" transform="translate(-71.32 -65.95)"/><polygon class="cls-2" points="1032.04 226.32 1278.89 226.32 1278.89 193.57 1079.04 193.57 1079.04 4.57 1032.04 4.57 1032.04 226.32"/><polygon class="cls-2" points="1492.39 4.57 1458.44 4.57 1294.64 226.32 1344.34 226.32 1475.59 45.2 1604.74 226.32 1655.14 226.32 1492.39 4.57"/><path class="cls-2" d="M1942.4,103.27q41.31,0,41.31,15.11v28q0,6.62-9.63,10.86t-28.53,4.25H1797.46V103.27ZM1797.46,259.52V194.27h147.39q19.61,0,29.23,4.1t9.63,11v35q0,15.13-41.31,15.13ZM1751,292.27h191.41q87.83,0,87.84-47.89V212.55q0-23.31-27.27-34.66,27.27-10.71,27.27-38.41v-21.1q0-47.86-87.84-47.86H1751Z" transform="translate(-71.32 -65.95)"/><path class="cls-2" d="M2160.05,157.77q-41.3,0-41.29-15.12V118.39q0-15.12,41.3-15.12h203.35V70.52H2160.06q-87.8,0-87.8,47.88v24.25q0,47.88,87.83,47.88H2291q41.29,0,41.29,15.13V245q0,14.5-41.3,14.49H2080.6v32.75H2291q87.8,0,87.8-47.25V205.65q0-47.88-87.83-47.88Z" transform="translate(-71.32 -65.95)"/><path class="cls-1" d="M910.58,319v0a6.58,6.58,0,0,0-5,2.6l-96,114.48,95.82,114.22a6.58,6.58,0,0,0,5,2.6v0a6.58,6.58,0,0,0,5-2.6l96-114.48L915.57,321.63A6.58,6.58,0,0,0,910.58,319Z" transform="translate(-71.32 -65.95)"/><path class="cls-3" d="M900.45,250.8l9.77-11.65v0l0,0h0L920,250.78l0,0,14.74,17.57L946,254.91a11.26,11.26,0,0,1,1.42-2.36L1069.52,107c5.4-6.44,0-12.87,0-12.87l-10.91-12.95-.33-.34-9.65-11.45c-1.51-1.67-3.47-3.48-5.65-3.48s-4.44,2.28-6.06,4.09l-17,20.28-.36.38-104.2,124.2a6.58,6.58,0,0,1-5,2.6v0a6.58,6.58,0,0,1-5-2.6L801.15,90.72l-.36-.38-17-20.28C782.16,68.25,780,66,777.72,66s-4.13,1.81-5.65,3.48L762.42,80.9l-.33.34L751.18,94.19s-5.42,6.43,0,12.87L873.24,252.57a11.24,11.24,0,0,1,1.42,2.37l11.14,13.28,14.63-17.44Z" transform="translate(-71.32 -65.95)"/><polygon class="cls-3" points="829.57 219.82 839.34 231.47 839.34 231.47 839.34 231.47 839.36 231.49 839.36 231.45 849.13 219.8 849.15 219.82 863.78 202.38 849.05 184.82 849.03 184.84 839.25 173.19 839.25 173.19 839.25 173.19 839.24 173.17 839.24 173.21 829.46 184.86 829.44 184.84 814.81 202.27 829.55 219.84 829.57 219.82"/><g class="cls-4"><rect class="cls-5" x="674.43" y="173.63" width="330.27" height="394.82"/></g><g class="cls-6"><rect class="cls-7" x="674.77" width="330.04" height="232.11"/></g></svg>