<?xml version="1.0" encoding="utf-8"?>
<!-- Generator: Adobe Illustrator 21.0.0, SVG Export Plug-In . SVG Version: 6.00 Build 0)  -->
<svg version="1.1" id="svg2" xmlns:svg="http://www.w3.org/2000/svg"
	 xmlns="http://www.w3.org/2000/svg" xmlns:xlink="http://www.w3.org/1999/xlink" x="0px" y="0px" viewBox="0 0 99.8 32.2"
	 style="enable-background:new 0 0 99.8 32.2;" xml:space="preserve">
<style type="text/css">
	.st0{clip-path:url(#SVGID_2_);}
	.st1{fill:#333333;}
	.st2{fill:none;stroke:#333333;stroke-width:0.598;}
	.st3{fill:#FFFFFF;}
	.st4{fill:none;stroke:#333333;stroke-width:1.6;}
	.st5{fill:none;stroke:#333333;stroke-width:3.36;stroke-linecap:round;}
</style>
<g id="g12" transform="matrix(1.25,0,0,-1.25,-305,520)">
	<g id="g16">
		<g>
			<defs>
				<rect id="SVGID_1_" x="-111.6" y="-84.7" width="765" height="990"/>
			</defs>
			<clipPath id="SVGID_2_">
				<use xlink:href="#SVGID_1_"  style="overflow:visible;"/>
			</clipPath>
			<g id="g18" class="st0">
				<g id="g104" transform="translate(280.6885,392.415)">
					<path id="path106" class="st1" d="M-35.1,14.3c0,0.4,0.1,0.8,0.4,1.1c0.3,0.3,0.6,0.4,1,0.4c0.4,0,0.7-0.1,1-0.4
						c0.3-0.3,0.4-0.6,0.4-1.1v-1.4h0.1c0.4,0.7,1,1.4,1.7,2c0.7,0.6,1.4,0.9,2.2,0.9c0.4,0,0.8-0.1,1.1-0.4c0.3-0.3,0.5-0.6,0.5-1
						c0-0.5-0.2-0.8-0.5-1.1c-0.3-0.2-0.8-0.4-1.5-0.6c-0.6-0.2-1-0.3-1.2-0.4c-1.5-0.8-2.3-2.3-2.3-4.3v-8.3c0-0.5-0.1-0.8-0.4-1.1
						c-0.3-0.3-0.6-0.4-1-0.4c-0.4,0-0.7,0.1-1,0.4c-0.3,0.3-0.4,0.6-0.4,1.1V14.3z"/>
				</g>
				<g id="g108" transform="translate(280.6885,392.415)">
					<path id="path110" class="st2" d="M-35.1,14.3c0,0.4,0.1,0.8,0.4,1.1c0.3,0.3,0.6,0.4,1,0.4c0.4,0,0.7-0.1,1-0.4
						c0.3-0.3,0.4-0.6,0.4-1.1v-1.4h0.1c0.4,0.7,1,1.4,1.7,2c0.7,0.6,1.4,0.9,2.2,0.9c0.4,0,0.8-0.1,1.1-0.4c0.3-0.3,0.5-0.6,0.5-1
						c0-0.5-0.2-0.8-0.5-1.1c-0.3-0.2-0.8-0.4-1.5-0.6c-0.6-0.2-1-0.3-1.2-0.4c-1.5-0.8-2.3-2.3-2.3-4.3v-8.3c0-0.5-0.1-0.8-0.4-1.1
						c-0.3-0.3-0.6-0.4-1-0.4c-0.4,0-0.7,0.1-1,0.4c-0.3,0.3-0.4,0.6-0.4,1.1V14.3z"/>
				</g>
				<g id="g112" transform="translate(292.5103,386.2129)">
					<path id="path114" class="st1" d="M-35.1,14.3h9.4c0,1.6-0.4,2.8-1.3,3.8c-0.8,1-1.9,1.4-3.3,1.5c-1.4,0-2.6-0.5-3.4-1.4
						C-34.5,17.2-35,15.9-35.1,14.3 M-37.9,13.4c0.1,1.5,0.4,2.8,1,4.2c0.6,1.3,1.5,2.4,2.6,3.2c1.1,0.8,2.4,1.2,4,1.3
						c1.5,0,2.8-0.4,3.9-1.2c1.1-0.8,2-1.8,2.6-3.2c0.6-1.3,0.9-2.7,0.9-4.1c0-0.9-0.5-1.4-1.6-1.4h-10.7c0-1.1,0.3-2.1,0.7-2.9
						c0.5-0.8,1.1-1.4,1.9-1.8c0.8-0.4,1.6-0.6,2.6-0.6c1.7,0,3.2,0.6,4.6,1.8c0.5,0.3,0.8,0.5,1.1,0.5c0.3,0,0.6-0.1,0.7-0.4
						c0.2-0.2,0.3-0.5,0.3-0.8c0-0.4-0.1-0.7-0.4-1c-0.6-0.7-1.5-1.3-2.7-1.8s-2.4-0.8-3.7-0.8c-1.4,0-2.6,0.3-3.6,0.8
						c-1,0.5-1.9,1.2-2.5,2.1c-0.6,0.9-1.1,1.8-1.4,2.8c-0.3,1-0.4,2-0.5,3.1C-37.9,13.3-37.9,13.3-37.9,13.4
						C-37.9,13.4-37.9,13.4-37.9,13.4"/>
				</g>
				<g id="g116" transform="translate(292.5103,386.2129)">
					<path id="path118" class="st2" d="M-35.1,14.3h9.4c0,1.6-0.4,2.8-1.3,3.8c-0.8,1-1.9,1.4-3.3,1.5c-1.4,0-2.6-0.5-3.4-1.4
						C-34.5,17.2-35,15.9-35.1,14.3z M-37.9,13.4c0.1,1.5,0.4,2.8,1,4.2c0.6,1.3,1.5,2.4,2.6,3.2c1.1,0.8,2.4,1.2,4,1.3
						c1.5,0,2.8-0.4,3.9-1.2c1.1-0.8,2-1.8,2.6-3.2c0.6-1.3,0.9-2.7,0.9-4.1c0-0.9-0.5-1.4-1.6-1.4h-10.7c0-1.1,0.3-2.1,0.7-2.9
						c0.5-0.8,1.1-1.4,1.9-1.8c0.8-0.4,1.6-0.6,2.6-0.6c1.7,0,3.2,0.6,4.6,1.8c0.5,0.3,0.8,0.5,1.1,0.5c0.3,0,0.6-0.1,0.7-0.4
						c0.2-0.2,0.3-0.5,0.3-0.8c0-0.4-0.1-0.7-0.4-1c-0.6-0.7-1.5-1.3-2.7-1.8s-2.4-0.8-3.7-0.8c-1.4,0-2.6,0.3-3.6,0.8
						c-1,0.5-1.9,1.2-2.5,2.1c-0.6,0.9-1.1,1.8-1.4,2.8c-0.3,1-0.4,2-0.5,3.1C-37.9,13.3-37.9,13.3-37.9,13.4
						C-37.9,13.4-37.9,13.4-37.9,13.4z"/>
				</g>
				<g id="g120" transform="translate(309.4863,385.2158)">
					<path id="path122" class="st1" d="M-35.1,14.3c0-1.7,0.4-3.2,1.1-4.4c0.7-1.2,1.9-1.9,3.3-1.9c1.2,0,2.1,0.3,2.9,0.9
						c0.7,0.6,1.3,1.4,1.6,2.3c0.3,0.9,0.5,2,0.5,3c0,1.2-0.2,2.3-0.6,3.3c-0.4,1-1,1.7-1.7,2.2c-0.7,0.5-1.5,0.8-2.4,0.8
						c-1.1,0-1.9-0.3-2.7-0.9c-0.7-0.6-1.2-1.4-1.5-2.4C-34.9,16.3-35,15.3-35.1,14.3 M-26,20.7v8.4c0,0.4,0.1,0.8,0.4,1
						c0.3,0.3,0.6,0.4,1,0.4c0.4,0,0.8-0.1,1-0.4c0.3-0.3,0.4-0.6,0.4-1.1V6.9c0-0.5-0.1-0.8-0.4-1.1c-0.3-0.3-0.6-0.4-1-0.4
						c-0.4,0-0.7,0.1-1,0.4c-0.3,0.3-0.4,0.6-0.4,1v0.9H-26c-0.3-0.6-0.8-1.1-1.5-1.6c-0.7-0.4-1.6-0.7-2.8-0.7
						c-1.5,0-2.8,0.4-4,1.1c-1.1,0.7-2,1.8-2.6,3.1c-0.6,1.3-0.9,2.8-1,4.5c0,1.2,0.2,2.3,0.5,3.4c0.4,1.1,0.8,2,1.5,2.8
						c0.6,0.8,1.4,1.4,2.3,1.9c0.9,0.5,1.9,0.7,2.9,0.7C-28.7,23-27.2,22.2-26,20.7C-26,20.7-26,20.7-26,20.7z"/>
				</g>
				<g id="g124" transform="translate(309.4863,385.2158)">
					<path id="path126" class="st2" d="M-35.1,14.3c0-1.7,0.4-3.2,1.1-4.4c0.7-1.2,1.9-1.9,3.3-1.9c1.2,0,2.1,0.3,2.9,0.9
						c0.7,0.6,1.3,1.4,1.6,2.3c0.3,0.9,0.5,2,0.5,3c0,1.2-0.2,2.3-0.6,3.3c-0.4,1-1,1.7-1.7,2.2c-0.7,0.5-1.5,0.8-2.4,0.8
						c-1.1,0-1.9-0.3-2.7-0.9c-0.7-0.6-1.2-1.4-1.5-2.4C-34.9,16.3-35,15.3-35.1,14.3z M-26,20.7v8.4c0,0.4,0.1,0.8,0.4,1
						c0.3,0.3,0.6,0.4,1,0.4c0.4,0,0.8-0.1,1-0.4c0.3-0.3,0.4-0.6,0.4-1.1V6.9c0-0.5-0.1-0.8-0.4-1.1c-0.3-0.3-0.6-0.4-1-0.4
						c-0.4,0-0.7,0.1-1,0.4c-0.3,0.3-0.4,0.6-0.4,1v0.9H-26c-0.3-0.6-0.8-1.1-1.5-1.6c-0.7-0.4-1.6-0.7-2.8-0.7
						c-1.5,0-2.8,0.4-4,1.1c-1.1,0.7-2,1.8-2.6,3.1c-0.6,1.3-0.9,2.8-1,4.5c0,1.2,0.2,2.3,0.5,3.4c0.4,1.1,0.8,2,1.5,2.8
						c0.6,0.8,1.4,1.4,2.3,1.9c0.9,0.5,1.9,0.7,2.9,0.7C-28.7,23-27.2,22.2-26,20.7C-26,20.7-26,20.7-26,20.7z"/>
				</g>
				<g id="g128" transform="translate(327.3467,385.2158)">
					<path id="path130" class="st1" d="M-35.1,14.3c0-1.7,0.4-3.2,1.1-4.4c0.7-1.2,1.9-1.9,3.3-1.9c1.2,0,2.1,0.3,2.9,0.9
						c0.7,0.6,1.3,1.4,1.6,2.3c0.3,0.9,0.5,2,0.5,3c0,1.2-0.2,2.3-0.6,3.3c-0.4,1-1,1.7-1.7,2.2c-0.7,0.5-1.5,0.8-2.4,0.8
						c-1.1,0-1.9-0.3-2.7-0.9c-0.7-0.6-1.2-1.4-1.5-2.4C-34.9,16.3-35,15.3-35.1,14.3 M-26,20.7v8.4c0,0.4,0.1,0.8,0.4,1
						c0.3,0.3,0.6,0.4,1,0.4c0.4,0,0.8-0.1,1-0.4c0.3-0.3,0.4-0.6,0.4-1.1V6.9c0-0.5-0.1-0.8-0.4-1.1c-0.3-0.3-0.6-0.4-1-0.4
						c-0.4,0-0.7,0.1-1,0.4s-0.4,0.6-0.4,1v0.9H-26c-0.3-0.6-0.8-1.1-1.5-1.6c-0.7-0.4-1.6-0.7-2.8-0.7c-1.5,0-2.8,0.4-4,1.1
						c-1.1,0.7-2,1.8-2.6,3.1c-0.6,1.3-1,2.8-1,4.5c0,1.2,0.2,2.3,0.5,3.4c0.4,1.1,0.8,2,1.5,2.8c0.6,0.8,1.4,1.4,2.3,1.9
						c0.9,0.5,1.9,0.7,2.9,0.7C-28.7,23-27.2,22.2-26,20.7C-26,20.7-26,20.7-26,20.7z"/>
				</g>
				<g id="g132" transform="translate(327.3467,385.2158)">
					<path id="path134" class="st2" d="M-35.1,14.3c0-1.7,0.4-3.2,1.1-4.4c0.7-1.2,1.9-1.9,3.3-1.9c1.2,0,2.1,0.3,2.9,0.9
						c0.7,0.6,1.3,1.4,1.6,2.3c0.3,0.9,0.5,2,0.5,3c0,1.2-0.2,2.3-0.6,3.3c-0.4,1-1,1.7-1.7,2.2c-0.7,0.5-1.5,0.8-2.4,0.8
						c-1.1,0-1.9-0.3-2.7-0.9c-0.7-0.6-1.2-1.4-1.5-2.4C-34.9,16.3-35,15.3-35.1,14.3z M-26,20.7v8.4c0,0.4,0.1,0.8,0.4,1
						c0.3,0.3,0.6,0.4,1,0.4c0.4,0,0.8-0.1,1-0.4c0.3-0.3,0.4-0.6,0.4-1.1V6.9c0-0.5-0.1-0.8-0.4-1.1c-0.3-0.3-0.6-0.4-1-0.4
						c-0.4,0-0.7,0.1-1,0.4s-0.4,0.6-0.4,1v0.9H-26c-0.3-0.6-0.8-1.1-1.5-1.6c-0.7-0.4-1.6-0.7-2.8-0.7c-1.5,0-2.8,0.4-4,1.1
						c-1.1,0.7-2,1.8-2.6,3.1c-0.6,1.3-1,2.8-1,4.5c0,1.2,0.2,2.3,0.5,3.4c0.4,1.1,0.8,2,1.5,2.8c0.6,0.8,1.4,1.4,2.3,1.9
						c0.9,0.5,1.9,0.7,2.9,0.7C-28.7,23-27.2,22.2-26,20.7C-26,20.7-26,20.7-26,20.7z"/>
				</g>
				<g id="g136" transform="translate(351.7471,391.2998)">
					<path id="path138" class="st1" d="M-35.1,14.3h-1.2c-0.4,0-0.7,0.1-1,0.3c-0.2,0.2-0.4,0.5-0.4,0.8c0.1,0.8,0.5,1.3,1.4,1.3
						h1.2v3.8c0,0.4,0.1,0.7,0.4,1c0.3,0.2,0.6,0.3,1,0.3c0.4,0,0.8-0.1,1-0.3c0.3-0.2,0.4-0.6,0.4-1v-3.7h1.2c0.4,0,0.8-0.1,1-0.3
						c0.2-0.2,0.3-0.5,0.3-0.9c0-0.3-0.1-0.6-0.3-0.8c-0.2-0.2-0.5-0.4-0.9-0.4h-1.4V0.8c0-0.4-0.1-0.8-0.4-1
						c-0.3-0.2-0.7-0.4-1.1-0.4c-0.4,0-0.7,0.1-0.9,0.4c-0.3,0.2-0.4,0.6-0.4,1.1V14.3z"/>
				</g>
				<g id="g140" transform="translate(351.7471,391.2998)">
					<path id="path142" class="st2" d="M-35.1,14.3h-1.2c-0.4,0-0.7,0.1-1,0.3c-0.2,0.2-0.4,0.5-0.4,0.8c0.1,0.8,0.5,1.3,1.4,1.3
						h1.2v3.8c0,0.4,0.1,0.7,0.4,1c0.3,0.2,0.6,0.3,1,0.3c0.4,0,0.8-0.1,1-0.3c0.3-0.2,0.4-0.6,0.4-1v-3.7h1.2c0.4,0,0.8-0.1,1-0.3
						c0.2-0.2,0.3-0.5,0.3-0.9c0-0.3-0.1-0.6-0.3-0.8c-0.2-0.2-0.5-0.4-0.9-0.4h-1.4V0.8c0-0.4-0.1-0.8-0.4-1
						c-0.3-0.2-0.7-0.4-1.1-0.4c-0.4,0-0.7,0.1-0.9,0.4c-0.3,0.2-0.4,0.6-0.4,1.1V14.3z"/>
				</g>
				<g id="g144" transform="translate(346.8604,398.5088)">
					<path id="path146" class="st3" d="M-35.1,14.3c0-1.3-1-2.3-2.3-2.3c-1.3,0-2.3,1-2.3,2.3s1,2.3,2.3,2.3
						C-36.1,16.6-35.1,15.5-35.1,14.3"/>
				</g>
				<g id="g148" transform="translate(346.8604,398.5088)">
					<path id="path150" class="st4" d="M-35.1,14.3c0-1.3-1-2.3-2.3-2.3c-1.3,0-2.3,1-2.3,2.3s1,2.3,2.3,2.3
						C-36.1,16.6-35.1,15.5-35.1,14.3z"/>
				</g>
				<g id="g152" transform="translate(344.5557,392.5674)">
					<path id="path154" class="st5" d="M-35.1,14.3V-0.5"/>
				</g>
			</g>
		</g>
	</g>
</g>
</svg>
