<?xml version="1.0" encoding="utf-8"?>
<!-- Generator: Adobe Illustrator 21.0.0, SVG Export Plug-In . SVG Version: 6.00 Build 0)  -->
<svg version="1.1" id="Capa_1" xmlns="http://www.w3.org/2000/svg" xmlns:xlink="http://www.w3.org/1999/xlink" x="0px" y="0px"
	 viewBox="0 0 739 512" style="enable-background:new 0 0 739 512;" xml:space="preserve">
<style type="text/css">
	.st0{fill:#333333;}
</style>
<g>
	<path id="Twitter__x28_alt_x29_" class="st0" d="M655.8,228c41.2-3.4,69.2-22.1,79.9-47.6c-14.9,9.1-61,19.1-86.5,9.6
		c-1.2-6-2.6-11.7-4-16.8c-19.4-71.3-85.9-128.8-155.6-121.9c5.6-2.3,11.4-4.4,17.1-6.3c7.7-2.7,52.7-10.1,45.6-26
		c-6-14-61,10.6-71.3,13.8c13.7-5.1,36.3-14,38.7-29.7c-20.9,2.9-41.5,12.8-57.4,27.2c5.7-6.2,10.1-13.7,11-21.8
		c-55.8,35.7-88.5,107.6-114.9,177.4c-20.7-20.1-39.1-35.9-55.6-44.7c-46.2-24.8-101.5-50.7-188.3-82.9
		c-2.7,28.7,14.2,66.9,62.8,92.3c-10.5-1.4-29.8,1.7-45.2,5.4c6.3,32.9,26.8,60,82.2,73.1c-25.3,1.7-38.4,7.4-50.3,19.9
		c11.5,22.9,39.7,49.8,90.4,44.3c-56.3,24.3-23,69.2,22.9,62.5C199.1,436.6,75.8,430.7,5,363.1C189.8,615,591.6,512.1,651.4,269.5
		c44.9,0.4,71.2-15.5,87.6-33.1C713.2,240.8,675.7,236.3,655.8,228z"/>
</g>
</svg>
